<?xml version="1.0" standalone="no"?>
<!DOCTYPE svg PUBLIC "-//W3C//DTD SVG 20010904//EN"
 "http://www.w3.org/TR/2001/REC-SVG-20010904/DTD/svg10.dtd">
<svg version="1.0" xmlns="http://www.w3.org/2000/svg"
 width="1024.000000pt" height="1024.000000pt" viewBox="0 0 1024.000000 1024.000000"
 preserveAspectRatio="xMidYMid meet">

<g transform="translate(0.000000,1024.000000) scale(0.100000,-0.100000)"
fill="#000000" stroke="none">
<path d="M4520 8780 c-270 -37 -587 -143 -809 -270 -129 -73 -333 -224 -434
-319 -122 -115 -286 -321 -379 -476 -120 -199 -234 -488 -277 -701 -58 -287
-47 -648 28 -939 48 -186 125 -366 237 -555 93 -156 146 -227 269 -360 350
-380 758 -606 1265 -700 147 -28 438 -38 606 -21 213 22 528 97 637 152 l40
21 99 -99 c88 -86 217 -229 257 -284 11 -16 8 -25 -27 -79 -23 -33 -44 -69
-47 -80 -8 -25 23 -85 77 -146 24 -27 61 -71 83 -99 21 -27 143 -158 270 -290
260 -271 422 -445 640 -690 235 -264 360 -396 402 -424 21 -15 58 -41 82 -58
69 -51 144 -75 236 -76 151 -1 240 48 340 188 83 115 96 192 65 381 -11 71
-23 139 -25 152 -5 18 -182 226 -229 267 -6 6 -92 96 -191 200 -99 105 -261
273 -360 375 -212 217 -570 620 -636 716 -65 95 -120 115 -187 68 l-37 -25
-35 42 c-19 23 -78 90 -130 148 -52 58 -101 114 -108 123 -12 15 -2 28 89 115
128 123 227 241 328 391 154 230 225 391 285 644 57 242 61 274 61 533 0 207
-3 258 -23 370 -50 273 -173 574 -340 824 -340 510 -874 860 -1479 967 -103
19 -540 28 -643 14z m470 -120 c390 -41 687 -150 1013 -373 404 -276 729 -761
841 -1257 68 -299 58 -693 -25 -966 -83 -276 -166 -442 -335 -674 -154 -212
-305 -358 -511 -498 -138 -93 -207 -129 -358 -187 -268 -103 -457 -140 -765
-152 -238 -8 -424 17 -690 94 -291 84 -633 294 -856 525 -176 184 -242 272
-354 477 -174 320 -243 598 -243 981 0 235 23 380 94 594 267 802 952 1354
1789 1439 77 8 311 6 400 -3z m1213 -3867 c78 -82 164 -180 185 -211 15 -22
12 -26 -108 -143 l-124 -121 -65 74 c-36 40 -108 118 -159 173 -58 62 -88 101
-80 104 7 2 39 21 70 43 31 21 61 38 65 38 4 0 37 25 73 54 36 30 68 55 72 55
3 1 35 -29 71 -66z m472 -320 l59 -64 -59 -52 c-142 -124 -315 -285 -382 -356
-70 -74 -72 -75 -87 -55 -8 11 -31 40 -50 63 -20 24 -36 51 -36 60 0 27 305
337 400 407 47 35 87 63 90 63 3 -1 32 -30 65 -66z m283 -338 c69 -77 162
-178 206 -225 45 -47 187 -198 316 -335 129 -137 308 -324 398 -416 l163 -167
-14 -29 c-8 -15 -25 -37 -38 -48 -12 -11 -19 -14 -14 -6 5 10 4 12 -3 7 -7 -4
-12 -14 -12 -22 0 -8 -7 -14 -16 -14 -9 0 -18 -9 -21 -20 -3 -11 -14 -20 -24
-20 -12 0 -19 -7 -19 -18 0 -10 -7 -27 -16 -38 -14 -17 -15 -17 -10 -1 3 11 2
16 -4 12 -6 -3 -10 0 -11 7 0 7 -4 3 -9 -10 l-10 -23 -30 22 c-19 14 -30 32
-30 46 0 15 -4 22 -11 17 -6 -4 -51 35 -105 90 -52 53 -97 96 -102 96 -4 0
-15 12 -25 26 -14 18 -16 28 -8 38 8 9 7 13 -4 13 -8 0 -12 -4 -9 -9 29 -46
-181 148 -379 352 -78 80 -243 245 -366 367 l-225 223 59 52 c33 29 93 88 135
130 88 91 59 103 238 -97z m1129 -1447 c-3 -32 -15 -78 -27 -104 -31 -64 -113
-156 -158 -176 -47 -22 -141 -23 -190 -2 l-37 15 115 110 c63 61 153 144 200
186 81 72 84 74 93 51 5 -13 7 -49 4 -80z"/>
<path d="M4680 8433 c-295 -22 -649 -137 -886 -288 -272 -174 -505 -441 -654
-750 -72 -149 -111 -259 -144 -406 -77 -346 -51 -688 75 -1005 52 -132 165
-344 236 -444 38 -52 120 -147 183 -211 325 -328 766 -518 1246 -536 177 -7
281 4 492 52 336 76 640 243 878 479 243 243 406 530 483 849 52 216 62 331
49 542 -34 564 -337 1099 -797 1407 -333 222 -772 340 -1161 311z m339 -148
c306 -44 555 -138 774 -293 360 -254 595 -611 688 -1047 21 -97 24 -135 23
-330 0 -257 -15 -360 -73 -535 -105 -313 -267 -551 -526 -769 -280 -238 -588
-354 -1047 -396 l-68 -7 0 290 0 290 -67 6 c-303 30 -515 134 -727 357 -74 78
-88 88 -105 79 -27 -14 -52 -13 -50 3 5 40 -2 69 -16 64 -8 -4 -17 -2 -21 4
-3 6 -13 8 -21 5 -20 -8 -43 11 -43 35 0 20 -15 25 -25 9 -8 -13 -35 13 -35
34 0 9 -8 16 -20 16 -11 0 -20 5 -20 10 0 6 -9 10 -20 10 -13 0 -20 7 -20 20
0 13 -7 20 -20 20 -13 0 -20 7 -20 20 0 13 -7 20 -20 20 -17 0 -20 7 -20 40
l0 40 -80 0 c-73 0 -80 -2 -80 -20 0 -17 -7 -20 -40 -20 l-40 0 0 -40 c0 -33
-3 -40 -20 -40 -13 0 -20 -7 -20 -20 0 -11 -6 -20 -13 -20 -10 0 -13 -14 -9
-57 2 -32 9 -63 14 -70 6 -7 5 -14 -3 -19 -8 -4 -9 -3 -5 4 4 7 3 12 -2 12
-10 0 -79 208 -101 301 -18 77 -34 337 -26 439 34 500 319 989 750 1289 84 58
222 129 323 165 97 35 334 94 419 105 109 14 319 12 432 -4z m-1745 -2401 c3
-8 2 -12 -4 -9 -6 3 -10 10 -10 16 0 14 7 11 14 -7z"/>
<path d="M5390 6635 c-24 -25 -42 -45 -39 -45 3 0 25 20 49 45 24 25 42 45 39
45 -3 0 -25 -20 -49 -45z"/>
<path d="M3643 6573 c44 -4 48 -6 44 -26 -3 -12 -1 -31 3 -42 6 -15 9 -8 9 28
l1 47 -52 -2 -53 -2 48 -3z"/>
<path d="M3900 6514 c0 -16 5 -36 10 -44 7 -10 8 -3 5 24 -6 48 -15 60 -15 20z"/>
<path d="M3687 6457 c-7 -18 9 -44 20 -33 4 5 2 11 -6 14 -10 3 -10 6 -1 12 8
5 8 10 2 14 -5 3 -12 0 -15 -7z"/>
<path d="M3911 6434 c0 -11 3 -14 6 -6 3 7 2 16 -1 19 -3 4 -6 -2 -5 -13z"/>
<path d="M3721 6324 c0 -11 3 -14 6 -6 3 7 2 16 -1 19 -3 4 -6 -2 -5 -13z"/>
<path d="M3151 6274 c0 -11 3 -14 6 -6 3 7 2 16 -1 19 -3 4 -6 -2 -5 -13z"/>
<path d="M5014 6258 l-19 -23 23 19 c21 18 27 26 19 26 -2 0 -12 -10 -23 -22z"/>
<path d="M4742 6220 c-39 -36 -71 -38 -110 -5 -29 24 -29 24 -28 3 1 -19 -4
-22 -34 -23 -19 0 -41 -4 -48 -9 -16 -10 -82 1 -82 14 0 13 -46 24 -62 14 -21
-14 -72 -11 -87 4 -15 15 -83 8 -89 -9 -5 -12 -42 -12 -42 1 0 6 -7 10 -15 10
-8 0 -15 -4 -15 -10 0 -5 -11 -12 -24 -16 -13 -3 -26 -15 -29 -26 -6 -22 11
-68 25 -68 4 0 8 -4 8 -10 0 -5 -7 -10 -15 -10 -8 0 -15 -4 -15 -10 0 -5 -7
-7 -16 -3 -57 22 141 -185 238 -250 118 -78 322 -147 436 -147 l52 0 0 177 0
178 85 82 c47 45 85 85 85 87 0 3 -8 5 -17 4 -54 -4 -123 3 -123 13 0 11 -29
38 -40 38 -3 0 -20 -13 -38 -29z m-347 -30 c3 -5 1 -10 -4 -10 -6 0 -11 5 -11
10 0 6 2 10 4 10 3 0 8 -4 11 -10z m-295 -160 c0 -5 -2 -10 -4 -10 -3 0 -8 5
-11 10 -3 6 -1 10 4 10 6 0 11 -4 11 -10z m50 -55 c0 -8 -2 -15 -4 -15 -2 0
-6 7 -10 15 -3 8 -1 15 4 15 6 0 10 -7 10 -15z"/>
<path d="M4976 6225 c-3 -8 -1 -15 4 -15 6 0 10 7 10 15 0 8 -2 15 -4 15 -2 0
-6 -7 -10 -15z"/>
<path d="M3760 6183 c0 -12 5 -25 10 -28 13 -8 13 15 0 35 -8 12 -10 11 -10
-7z"/>
<path d="M4027 6137 c-3 -8 -2 -20 3 -26 5 -9 8 -4 8 13 0 29 -3 32 -11 13z"/>
<path d="M3786 6127 c3 -10 9 -15 12 -12 3 3 0 11 -7 18 -10 9 -11 8 -5 -6z"/>
<path d="M3810 6050 c0 -5 4 -10 10 -10 14 0 42 -59 34 -72 -5 -7 0 -9 14 -6
12 4 20 2 17 -2 -3 -5 -1 -11 5 -15 19 -12 10 16 -22 65 -30 45 -58 64 -58 40z"/>
<path d="M7540 3180 c0 -11 5 -20 10 -20 6 0 10 9 10 20 0 11 -4 20 -10 20 -5
0 -10 -9 -10 -20z"/>
<path d="M7680 3191 c0 -6 4 -13 10 -16 6 -3 7 1 4 9 -7 18 -14 21 -14 7z"/>
<path d="M7600 3115 c0 -23 5 -35 14 -35 9 0 17 -16 22 -42 4 -24 9 -37 11
-30 5 14 33 16 33 2 0 -5 9 -10 20 -10 17 0 20 7 20 39 0 35 -3 39 -31 45 -17
3 -35 3 -40 0 -5 -3 -9 11 -9 30 0 29 -4 36 -20 36 -16 0 -20 -7 -20 -35z"/>
<path d="M7760 3111 c0 -6 4 -13 10 -16 6 -3 7 1 4 9 -7 18 -14 21 -14 7z"/>
<path d="M7530 3068 c0 -4 4 -8 9 -8 6 0 12 4 15 8 3 5 -1 9 -9 9 -8 0 -15 -4
-15 -9z"/>
<path d="M7760 2975 c0 -8 9 -15 20 -15 11 0 20 7 20 15 0 8 -9 15 -20 15 -11
0 -20 -7 -20 -15z"/>
<path d="M7705 2910 c-3 -5 -1 -10 4 -10 6 0 11 5 11 10 0 6 -2 10 -4 10 -3 0
-8 -4 -11 -10z"/>
<path d="M7780 2825 c7 -9 15 -13 17 -11 7 7 -7 26 -19 26 -6 0 -6 -6 2 -15z"/>
<path d="M2635 8763 c-14 -13 -16 -28 -12 -65 l6 -48 -47 0 c-63 0 -94 -22
-90 -63 3 -32 4 -32 64 -35 l62 -3 4 -49 c6 -60 21 -80 59 -80 34 0 49 28 49
90 l0 39 57 3 c53 3 58 5 67 31 16 46 -1 62 -73 65 l-61 3 0 58 c0 44 -4 60
-16 65 -27 10 -52 7 -69 -11z"/>
<path d="M3264 8575 c-10 -8 -14 -15 -8 -15 6 0 17 7 24 15 16 19 9 19 -16 0z"/>
<path d="M3177 8514 c-32 -25 -57 -48 -54 -50 2 -3 15 4 28 16 81 68 94 80 89
80 -3 0 -31 -21 -63 -46z"/>
<path d="M3025 8380 c-3 -5 -1 -10 4 -10 6 0 11 5 11 10 0 6 -2 10 -4 10 -3 0
-8 -4 -11 -10z"/>
<path d="M2947 8310 c-21 -25 -21 -30 0 -30 9 0 13 3 10 6 -3 4 -2 15 4 25 13
25 8 24 -14 -1z"/>
<path d="M3164 8278 l-19 -23 23 19 c21 18 27 26 19 26 -2 0 -12 -10 -23 -22z"/>
<path d="M2866 8222 l-19 -27 26 24 c28 26 32 31 20 31 -5 0 -17 -13 -27 -28z"/>
<path d="M1918 8206 c-77 -22 -143 -78 -178 -150 -58 -117 -49 -231 28 -331
44 -59 91 -92 150 -108 l42 -11 0 -231 c0 -128 -3 -300 -7 -384 l-6 -152 -45
-11 c-118 -30 -194 -208 -152 -359 19 -69 102 -144 182 -163 l28 -6 0 -418 0
-417 -51 -19 c-65 -23 -135 -87 -165 -151 -29 -62 -32 -167 -7 -241 22 -64
113 -157 170 -174 34 -10 42 -18 47 -43 3 -16 6 -209 6 -428 l0 -399 -22 0
c-27 0 -95 -32 -123 -57 -120 -107 -133 -300 -29 -421 82 -96 230 -132 341
-83 94 42 172 150 173 239 0 39 3 44 31 54 104 36 419 227 613 372 7 5 30 -3
61 -23 43 -27 57 -31 122 -31 43 0 89 6 113 16 l40 16 62 -44 c121 -86 295
-183 478 -269 190 -88 261 -115 388 -145 l72 -17 0 -66 c0 -36 4 -82 10 -101
20 -72 111 -150 175 -150 30 0 29 18 26 -285 -1 -126 2 -343 7 -480 l8 -250
30 -65 c34 -71 106 -157 160 -190 85 -53 76 -52 991 -59 l853 -6 30 -34 c27
-29 35 -32 63 -27 18 3 40 16 50 27 22 28 22 81 -1 102 -21 19 -73 22 -89 6
-9 -9 -24 -7 -60 9 -47 20 -69 21 -848 27 -519 4 -818 10 -850 17 -95 21 -168
87 -205 186 -19 50 -20 79 -20 540 l0 488 46 44 c53 52 81 101 90 159 l7 41
113 0 114 0 2 -27 c1 -16 2 -212 3 -438 0 -469 0 -471 85 -556 86 -86 69 -84
740 -83 l585 1 30 -41 c17 -23 54 -52 85 -69 49 -26 62 -28 125 -25 84 6 136
30 189 88 49 54 76 119 76 181 0 59 -17 95 -73 157 -157 171 -426 90 -465
-140 l-8 -43 -570 -3 -571 -2 -34 23 c-40 27 -75 86 -85 141 -3 22 -3 221 1
441 l7 402 97 7 c197 13 423 61 693 148 l127 41 -47 58 c-110 138 -132 176
-132 233 0 42 7 64 35 110 l35 58 -54 51 c-60 59 -140 148 -153 171 -8 14 -19
12 -98 -15 -150 -51 -387 -108 -507 -121 -144 -16 -433 -17 -566 -1 -249 31
-546 118 -754 223 -450 226 -856 627 -1074 1062 -121 240 -174 400 -226 673
-39 208 -31 590 19 830 19 93 29 136 38 160 5 16 5 17 -4 5 -6 -9 -11 -10 -11
-3 0 20 12 43 20 38 4 -3 10 4 13 16 4 15 2 18 -7 10 -18 -15 -74 35 -58 51 7
7 12 27 12 45 0 30 -3 33 -30 33 -27 0 -30 3 -30 30 0 19 7 34 20 42 27 17 26
48 -1 48 -17 0 -19 3 -10 13 6 8 8 17 4 20 -3 4 1 7 10 7 9 0 17 6 18 13 2 31
9 47 28 68 21 23 24 40 7 41 -10 0 -94 -156 -98 -181 -2 -9 -9 -22 -16 -30 -7
-7 -11 -20 -8 -28 3 -8 2 -12 -2 -9 -14 8 -76 -141 -139 -334 -8 -25 -18 -52
-23 -61 -5 -9 -23 -74 -40 -145 -18 -71 -34 -131 -36 -133 -2 -2 -19 4 -38 13
-19 9 -39 16 -45 16 -8 0 -11 113 -11 390 l0 390 28 6 c44 10 107 50 142 90
105 121 107 288 4 403 -81 90 -206 129 -316 97z m181 -129 c77 -51 109 -147
77 -230 -47 -124 -193 -165 -287 -80 -52 47 -69 81 -69 138 0 157 156 253 279
172z m-20 -1386 c45 -32 74 -94 66 -139 -11 -58 -33 -90 -75 -112 -105 -54
-220 14 -220 130 0 121 131 191 229 121z m58 -516 c18 -218 32 -308 76 -490
43 -174 107 -365 169 -498 91 -197 110 -231 295 -508 123 -187 158 -232 182
-240 10 -4 11 -13 2 -44 -15 -55 -14 -109 4 -152 9 -20 14 -42 12 -48 -12 -29
-405 -296 -534 -362 l-42 -22 -25 43 c-36 61 -127 142 -173 153 l-38 9 0 429
0 429 34 8 c55 15 109 57 151 120 43 64 55 105 54 183 -1 116 -100 242 -209
265 l-30 6 -3 418 c-2 441 -1 450 42 444 19 -3 22 -13 33 -143z m-48 -839 c42
-22 89 -81 97 -121 9 -49 -3 -112 -27 -152 -36 -58 -128 -92 -197 -74 -83 23
-132 91 -132 184 0 66 43 140 93 162 42 19 131 19 166 1z m1107 -862 c69 -33
105 -151 67 -224 -71 -137 -275 -89 -291 69 -5 56 16 101 69 146 36 30 102 34
155 9z m-1081 -598 c52 -40 79 -105 71 -169 -13 -91 -51 -135 -137 -158 -145
-38 -265 115 -200 256 34 74 90 108 173 102 43 -2 65 -10 93 -31z m2476 -226
c29 -16 49 -64 49 -120 l0 -50 -45 0 c-53 0 -96 19 -142 63 -45 42 -41 75 12
105 25 14 100 15 126 2z m2124 -951 c20 -18 43 -45 51 -60 18 -36 18 -93 -1
-109 -8 -7 -13 -16 -10 -20 10 -16 -68 -69 -109 -75 -62 -10 -116 19 -158 83
-58 87 30 212 149 212 33 0 50 -7 78 -31z"/>
<path d="M6558 2473 c7 -3 16 -2 19 1 4 3 -2 6 -13 5 -11 0 -14 -3 -6 -6z"/>
<path d="M2806 8160 c-32 -34 -31 -48 1 -25 15 11 39 55 30 55 -1 0 -15 -14
-31 -30z"/>
<path d="M3046 8153 c-6 -14 -5 -15 5 -6 7 7 10 15 7 18 -3 3 -9 -2 -12 -12z"/>
<path d="M7943 8154 c-82 -29 -183 -150 -183 -219 0 -21 -6 -22 -127 -28 -175
-9 -406 -7 -478 4 -68 11 -71 11 -257 0 -76 -4 -141 -10 -145 -15 -4 -4 2 -24
14 -44 l21 -37 493 -5 c272 -3 495 -7 495 -8 1 -1 4 -16 8 -34 10 -48 108
-140 169 -157 l47 -14 0 -498 c0 -496 0 -499 -20 -499 -32 0 -91 -34 -132 -77
-47 -49 -79 -120 -85 -193 -5 -53 -2 -66 36 -144 44 -91 85 -130 164 -155 l37
-13 1 -366 c1 -575 4 -612 47 -612 48 1 47 -9 49 452 2 238 5 451 8 474 5 37
9 42 44 53 53 15 136 93 168 155 35 68 38 178 7 246 -31 66 -102 135 -163 157
l-51 18 0 445 c0 245 -3 468 -6 497 -7 51 -6 52 22 59 49 12 97 40 136 81 140
145 97 378 -87 465 -69 32 -160 37 -232 12z m149 -84 c149 -42 184 -232 64
-338 -136 -120 -346 58 -272 231 19 43 73 93 116 105 47 13 49 14 92 2z m56
-1602 c127 -85 98 -317 -44 -344 -18 -3 -56 -1 -84 6 -89 21 -140 91 -140 192
0 139 152 222 268 146z"/>
<path d="M2736 8072 c-9 -17 -19 -32 -23 -34 -14 -6 -54 -68 -58 -89 -4 -17
-2 -19 10 -9 8 7 13 15 11 19 -3 4 0 13 5 21 8 11 9 5 5 -22 -2 -21 -1 -38 5
-38 5 0 9 9 9 20 0 11 5 20 10 20 6 0 10 9 10 20 0 13 7 20 20 20 13 0 20 7
20 20 0 11 -6 20 -12 20 -9 0 -8 3 2 9 8 6 18 7 22 5 14 -9 8 23 -6 35 -12 10
-18 7 -30 -17z"/>
<path d="M2939 8023 c-13 -16 -12 -17 4 -4 16 13 21 21 13 21 -2 0 -10 -8 -17
-17z"/>
<path d="M2625 7910 c-4 -6 1 -13 10 -16 10 -4 13 -13 10 -25 -7 -21 10 -27
17 -6 11 31 -21 72 -37 47z"/>
<path d="M2803 7835 c0 -8 4 -12 9 -9 5 3 6 10 3 15 -9 13 -12 11 -12 -6z"/>
<path d="M2535 7781 c-6 -11 9 -23 19 -14 9 9 7 23 -3 23 -6 0 -12 -4 -16 -9z"/>
<path d="M2540 7710 c0 -5 5 -10 11 -10 5 0 7 5 4 10 -3 6 -8 10 -11 10 -2 0
-4 -4 -4 -10z"/>
<path d="M2526 7674 c-3 -9 -6 -24 -6 -35 0 -10 -7 -19 -15 -19 -8 0 -15 -9
-15 -20 0 -11 7 -20 15 -20 8 0 15 6 15 13 0 8 9 22 20 32 11 10 20 26 20 35
0 23 -27 33 -34 14z"/>
<path d="M2530 7340 c0 -5 5 -10 10 -10 6 0 10 5 10 10 0 6 -4 10 -10 10 -5 0
-10 -4 -10 -10z"/>
<path d="M7145 6346 c-2 -12 -11 -51 -19 -87 -20 -81 -20 -79 2 -77 42 5 479
-15 493 -23 13 -7 18 -2 23 23 3 17 6 51 6 75 l0 45 -32 -6 c-29 -5 -62 -2
-188 18 -29 5 -30 4 -10 -3 23 -8 22 -9 -12 -10 -20 -1 -44 2 -54 6 -16 6 -16
7 2 14 26 9 12 13 -109 31 -96 14 -98 14 -102 -6z m168 -43 c-7 -2 -19 -2 -25
0 -7 3 -2 5 12 5 14 0 19 -2 13 -5z"/>
<path d="M7105 6108 c2 -21 0 -38 -5 -38 -9 0 -31 -90 -24 -101 2 -4 0 -9 -6
-11 -5 -1 -27 -55 -49 -118 -58 -165 -88 -231 -160 -352 -75 -126 -242 -350
-326 -440 -32 -35 -72 -77 -87 -94 l-29 -31 76 -76 77 -77 73 7 73 6 69 -69
c38 -38 88 -94 112 -126 41 -55 159 -178 170 -178 4 0 34 46 69 103 34 56 89
144 121 195 l60 92 -150 0 c-136 0 -151 2 -169 20 -25 25 -25 46 -1 86 24 39
49 44 244 44 141 0 147 1 147 20 0 19 9 47 70 215 12 33 38 121 57 195 19 74
39 154 46 178 8 35 8 45 -2 52 -8 4 -10 13 -7 19 4 6 2 11 -3 11 -6 0 -11 -9
-11 -20 0 -11 5 -20 10 -20 6 0 10 -9 10 -20 0 -11 -4 -20 -10 -20 -5 0 -7 -6
-4 -14 3 -8 0 -17 -5 -21 -6 -3 -8 -11 -5 -17 4 -7 2 -8 -4 -4 -16 10 -16 148
0 164 9 9 5 12 -20 12 -25 0 -32 4 -32 20 0 11 -4 20 -10 20 -5 0 -10 9 -10
20 0 11 5 20 10 20 6 0 10 9 10 20 0 14 -7 20 -21 20 -19 0 -21 4 -16 33 3 17
3 26 0 20 -2 -7 -22 -13 -44 -13 -33 0 -39 3 -39 20 0 19 -4 20 -37 14 -21 -3
-44 -13 -50 -22 -11 -13 -13 -13 -13 -1 -1 11 -4 10 -14 -3 -7 -10 -19 -18
-26 -18 -8 0 -10 6 -5 18 24 57 36 208 14 170 -13 -24 -29 -23 -29 2 0 24 -69
47 -82 27 -4 -6 -6 7 -4 30 2 23 -1 47 -5 55 -6 8 -7 -1 -4 -24z m125 -292 c0
-3 -4 -8 -10 -11 -5 -3 -10 -1 -10 4 0 6 5 11 10 11 6 0 10 -2 10 -4z m-30
-65 c0 -5 -7 -14 -15 -21 -16 -14 -18 -10 -9 14 6 17 24 22 24 7z"/>
<path d="M5562 3456 c-87 -29 -160 -108 -188 -204 -41 -141 62 -314 213 -358
67 -20 148 -13 210 17 52 25 119 97 144 155 l20 44 122 1 c104 0 437 15 489
21 15 2 14 5 -3 30 l-20 28 -292 2 -292 3 -6 40 c-3 22 -12 54 -21 70 -26 47
-98 112 -153 136 -62 27 -164 34 -223 15z m183 -119 c59 -33 97 -94 97 -154 0
-165 -193 -246 -304 -127 -64 68 -66 186 -5 253 50 54 144 67 212 28z"/>
<path d="M2783 2955 c-76 -38 -127 -112 -139 -202 -8 -61 15 -149 50 -190 34
-40 116 -83 174 -90 106 -12 225 51 272 143 l25 51 415 5 c228 2 426 0 440 -5
33 -11 70 -46 82 -77 6 -15 5 -93 -2 -215 -17 -292 3 -391 97 -496 47 -52 74
-65 151 -73 81 -9 81 4 -2 71 -41 33 -71 68 -95 113 l-36 65 -5 302 c-6 343
-3 330 -95 388 l-48 30 -452 3 -452 3 -11 38 c-7 21 -31 56 -54 79 -82 82
-217 106 -315 57z m212 -100 c32 -32 55 -86 55 -128 0 -17 -3 -17 -39 4 -21
12 -51 32 -66 45 -16 13 -32 24 -37 24 -4 0 -8 9 -8 20 0 11 5 20 10 20 6 0
10 9 10 19 0 18 12 28 33 30 5 1 24 -15 42 -34z"/>
</g>
</svg>
